<?xml version="1.0" standalone="no"?>
<!DOCTYPE svg PUBLIC "-//W3C//DTD SVG 20010904//EN"
 "http://www.w3.org/TR/2001/REC-SVG-20010904/DTD/svg10.dtd">
<svg version="1.0" xmlns="http://www.w3.org/2000/svg"
 width="700.000000pt" height="700.000000pt" viewBox="0 0 700.000000 700.000000"
 preserveAspectRatio="xMidYMid meet">
<metadata>
Created by potrace 1.14, written by Peter Selinger 2001-2017
</metadata>
<g transform="translate(0.000000,700.000000) scale(0.100000,-0.100000)"
fill="#000000" stroke="none">
<path d="M1210 6989 c-223 -28 -454 -121 -643 -257 -103 -74 -259 -237 -330
-343 -102 -154 -174 -327 -213 -514 -18 -87 -19 -172 -19 -2375 0 -2152 1
-2290 18 -2370 39 -187 113 -367 214 -519 71 -107 227 -269 332 -344 157 -114
359 -202 556 -243 87 -18 173 -19 2375 -19 2131 0 2291 1 2370 17 565 116 987
537 1106 1103 18 87 19 173 19 2375 0 2202 -1 2288 -19 2375 -41 197 -129 399
-243 556 -70 99 -233 257 -336 327 -138 95 -319 172 -502 215 l-90 21 -2265 2
c-1246 1 -2294 -2 -2330 -7z m1406 -559 c123 -60 199 -162 224 -300 13 -70 9
-155 -15 -305 -22 -132 -21 -134 18 -94 19 19 69 52 112 74 76 39 81 40 179
40 109 0 155 -14 239 -73 81 -55 176 -218 177 -301 0 -42 16 -12 54 106 92
279 193 392 376 425 197 34 397 -95 450 -291 6 -24 11 -86 11 -137 l0 -94 51
26 c100 51 232 51 342 1 31 -14 82 -52 120 -90 36 -35 66 -63 66 -61 0 22 75
356 86 383 31 74 95 159 147 195 79 54 129 69 232 70 82 1 96 -2 160 -32 114
-54 185 -137 220 -256 14 -48 17 -87 13 -202 l-4 -142 87 -4 c72 -3 97 -9 150
-36 108 -54 176 -132 209 -238 35 -114 26 -199 -76 -779 -155 -882 -258 -1348
-644 -2921 -116 -473 -208 -683 -345 -786 -72 -55 -133 -73 -240 -73 -111 1
-182 26 -253 90 l-49 44 -22 -23 c-55 -59 -195 -103 -295 -92 -133 14 -251 98
-314 224 l-37 76 0 137 0 137 -46 -34 c-159 -116 -364 -103 -510 32 -102 97
-120 151 -128 394 l-6 185 -48 -145 c-87 -266 -170 -391 -303 -456 -153 -75
-338 -46 -454 70 -25 25 -48 46 -51 46 -4 0 -19 -34 -34 -76 -105 -287 -363
-414 -603 -296 -56 27 -150 119 -178 174 -78 151 -90 397 -50 1083 8 127 13
231 12 232 -1 2 -19 -57 -40 -130 -65 -223 -134 -429 -169 -502 -105 -216
-338 -306 -541 -210 -77 37 -149 105 -184 175 -81 162 -67 340 78 980 157 694
257 1250 350 1950 88 664 138 908 215 1060 34 68 125 160 191 193 105 53 234
57 327 11 l47 -24 9 22 c5 13 25 70 46 128 89 251 167 372 275 430 72 38 126
50 211 47 74 -3 96 -8 155 -37z"/>
<path d="M2180 3968 c0 -630 4 -1058 10 -1113 16 -135 46 -238 105 -360 161
-329 485 -545 912 -607 124 -18 415 -15 533 5 463 79 802 343 930 724 60 180
60 185 60 1331 l0 1042 -325 0 -325 0 0 -1007 c0 -848 -3 -1019 -15 -1078 -64
-307 -357 -498 -695 -456 -257 33 -434 172 -512 406 l-23 70 -3 1033 -3 1032
-324 0 -325 0 0 -1022z"/>
</g>
</svg>
